<svg width="150" height="300" viewBox="0 0 150 300" fill="none" xmlns="http://www.w3.org/2000/svg">
<g style="mix-blend-mode:soft-light" clip-path="url(#clip0_1_3629)">
<g clip-path="url(#clip1_1_3629)">
<path d="M119.636 150.768C119.636 156.777 121.418 162.651 124.756 167.647C128.095 172.643 132.84 176.537 138.391 178.837C143.943 181.136 150.052 181.738 155.945 180.566C161.839 179.394 167.252 176.5 171.501 172.251C175.75 168.002 178.644 162.588 179.816 156.695C180.988 150.801 180.387 144.692 178.087 139.141C175.788 133.589 171.893 128.844 166.897 125.506C161.901 122.167 156.027 120.386 150.018 120.386C141.96 120.386 134.232 123.587 128.535 129.284C122.837 134.982 119.636 142.71 119.636 150.768ZM152.267 137.522H151.981C151.781 137.558 151.575 137.558 151.375 137.522H151.91L153.124 137.772C154.106 138.024 155.053 138.396 155.944 138.879L157.479 139.843L158.908 141.057C159.336 141.521 159.729 142.021 160.121 142.485C160.514 142.949 160.8 143.52 161.085 143.984C161.563 144.89 161.935 145.849 162.192 146.84C162.43 147.834 162.55 148.853 162.549 149.875V152.196C162.564 152.101 162.564 152.005 162.549 151.91C162.532 151.708 162.532 151.505 162.549 151.303C162.532 151.481 162.532 151.661 162.549 151.839C162.549 152.196 162.549 152.624 162.299 153.052C162.042 154.044 161.67 155.002 161.192 155.909C160.907 156.373 160.586 156.908 160.229 157.408C159.872 157.908 159.443 158.372 159.015 158.836L157.587 160.05L156.051 161.014C155.16 161.497 154.213 161.869 153.231 162.121C152.241 162.378 151.219 162.498 150.196 162.478H148.197C148.398 162.441 148.603 162.441 148.804 162.478L148.197 162.513L146.983 162.263C145.99 162.012 145.031 161.64 144.127 161.157C143.663 160.871 143.127 160.55 142.628 160.193L141.057 158.943L139.807 157.515C139.45 157.015 139.165 156.48 138.843 156.016C138.391 155.102 138.032 154.145 137.772 153.16C137.53 152.166 137.398 151.148 137.38 150.125C137.38 149.732 137.38 149.268 137.38 148.733C137.398 148.424 137.398 148.114 137.38 147.804C137.397 147.899 137.397 147.996 137.38 148.09C137.397 148.292 137.397 148.495 137.38 148.697C137.397 148.519 137.397 148.339 137.38 148.161C137.38 147.804 137.38 147.376 137.629 146.948C137.889 145.962 138.248 145.005 138.7 144.091C139.022 143.627 139.307 143.092 139.664 142.592L141.057 141.092L142.485 139.879L143.984 138.915C144.888 138.431 145.847 138.059 146.84 137.808C147.819 137.551 148.828 137.431 149.839 137.451H152.196L152.267 137.522Z" fill="white"/>
<path d="M297.787 160.336C296.644 158.122 295.43 156.051 295.43 156.051V146.091C295.43 145.127 295.43 144.163 295.43 143.413C295.43 142.663 295.43 142.199 295.43 142.199L297.787 138.629L300.071 135.059C300.071 135.059 300.071 133.988 299.75 132.346C299.429 130.703 299.286 128.526 298.965 126.383L297.894 120.421C297.572 118.815 297.322 117.744 297.322 117.744L294.038 114.959C292.396 113.602 290.718 112.353 290.718 112.353L290.039 109.996C289.647 108.604 289.147 106.748 288.504 104.927C287.862 103.106 287.255 101.357 286.79 99.8929C286.326 98.4291 285.934 97.6436 285.934 97.6436C285.934 97.6436 286.505 95.6444 287.076 93.538C287.362 92.5026 287.612 91.4673 287.79 90.6819L288.111 89.3967L286.969 86.8976C286.291 85.3624 285.327 83.3274 284.327 81.4352C283.327 79.543 282.292 77.5437 281.471 76.1157L280.114 73.7594L278.865 73.2239C278.115 72.9025 277.151 72.5098 276.116 72.1528C274.116 71.3674 272.153 70.689 272.153 70.689L270.832 68.6898C270.011 67.4759 268.904 65.905 267.797 64.3698C266.69 62.8347 265.477 61.2638 264.584 60.1571L263.12 58.2649V56.9439C263.12 56.1585 263.12 55.0874 263.12 54.0521C263.12 51.91 262.835 49.7679 262.835 49.7679L262.335 49.1967L260.978 47.733C259.871 46.5548 258.372 44.9482 256.837 43.4131L252.481 39.236C252.025 38.7614 251.536 38.3199 251.018 37.915L250.482 37.4152L246.198 37.1296H241.735L239.843 35.6302C238.7 34.7376 237.201 33.5595 235.63 32.4527C234.059 31.346 232.488 30.2035 231.31 29.4181L229.311 28.0971C229.311 28.0971 228.597 26.0978 227.847 24.0985C227.454 23.0989 227.062 22.0993 226.74 21.3852L226.241 20.1356L223.849 18.779C222.456 17.9222 220.493 16.9225 218.529 15.9229C216.566 14.9232 214.602 13.9593 213.102 13.281L210.603 12.1385L209.282 12.4598L206.426 13.1739C204.356 13.7094 202.321 14.3163 202.321 14.3163L200.071 13.4595L195.073 11.7458C193.217 11.1032 191.503 10.6034 189.968 10.1749L187.647 9.53228C187.647 9.53228 186.362 7.85434 185.005 6.21207L182.256 2.92753L179.543 2.3563C177.936 2.03498 175.973 1.64225 173.617 1.28524C171.26 0.928223 169.261 0.678328 167.619 0.464119L165.655 0.249918H164.798C164.798 0.249918 162.549 1.32095 160.336 2.4634C158.122 3.60584 156.051 4.78403 156.051 4.78403H151.803V5.42663V4.28415H142.235C142.235 4.28415 140.521 3.10603 138.665 1.96358L135.095 -0.32132L132.381 -0.0357008C130.739 0.178508 128.561 0.428404 126.383 0.785419L120.457 1.85648L117.779 2.42771C117.779 2.42771 116.351 4.06998 114.995 5.71225C113.638 7.35452 112.353 9.03246 112.353 9.03246L110.032 9.67512C108.64 10.1035 106.783 10.6034 104.963 11.246C103.142 11.8886 101.392 12.4598 99.9286 12.9597L97.6794 13.8165C97.6794 13.8165 95.6444 13.2096 93.5738 12.674L90.7176 11.96L89.3967 11.6387L86.8976 12.7811C85.3981 13.4595 83.3274 14.4234 81.4709 15.4231C79.6145 16.4227 77.5795 17.4581 76.1514 18.2792L73.7594 19.6358L73.2596 20.8854C72.9383 21.5994 72.5455 22.5991 72.1528 23.5987C71.4031 25.598 70.7248 27.5973 70.7248 27.5973L68.6898 28.9182C67.5116 29.7037 65.9408 30.8461 64.3699 31.9528C62.799 33.0596 61.2996 34.2735 60.1571 35.1303L58.3006 36.6298H54.0522L49.8037 36.9154L49.2324 37.4152L47.7687 38.7362L43.4131 42.9132L39.2717 47.2332L37.9151 48.6969L37.4509 49.2681C37.4509 49.2681 37.4509 51.4102 37.1296 53.5523V57.7651L35.6302 59.6573C34.7376 60.7997 33.5595 62.2992 32.4527 63.87C31.346 65.4409 30.2035 66.9761 29.3824 68.1899L28.0971 70.1892L24.0986 71.653L21.3495 72.724L20.1357 73.2595L18.7433 75.6515C17.9222 77.0439 16.8869 79.0075 15.9229 80.9711C14.959 82.9347 13.9236 84.8982 13.281 86.3977L12.1385 88.8968C12.1385 88.8968 12.1385 89.4323 12.4242 90.2178C12.7098 91.0032 12.8883 92.0386 13.1739 93.0739C13.7094 95.1446 14.3163 97.1439 14.3163 97.1439L13.4595 99.3931C12.9597 100.785 12.3171 102.606 11.7101 104.427C11.1032 106.248 10.5677 107.997 10.175 109.532L9.53234 111.853C9.53234 111.853 7.81866 113.102 6.21209 114.495C4.60552 115.887 2.92755 117.244 2.92755 117.244C2.92755 117.244 2.64194 118.315 2.35633 119.921C2.07071 121.528 1.6423 123.706 1.28528 125.884C0.928268 128.061 0.678359 130.239 0.46415 131.846C0.46415 132.667 0.464145 133.345 0.249936 133.845V134.666C0.249936 134.666 1.35669 136.951 2.49914 139.129C3.64159 141.307 4.81973 143.449 4.81973 143.449V147.662C4.81973 147.662 4.81973 151.446 4.81973 153.374C4.81973 154.338 4.81973 155.337 4.81973 156.051C4.81973 156.765 4.81973 157.265 4.81973 157.265C4.81973 157.265 3.64159 158.979 2.49914 160.835C1.35669 162.692 0.214233 164.406 0.214233 164.406C0.214233 164.406 0.214233 165.477 0.499845 167.119C0.785458 168.761 0.963971 170.939 1.32099 173.081C1.678 175.223 2.07072 177.437 2.39203 179.043C2.71334 180.65 2.96325 181.721 2.96325 181.721C2.96325 181.721 4.60552 183.149 6.24779 184.506C7.89007 185.862 9.56804 187.147 9.56804 187.147L10.2107 189.468C10.6034 190.86 11.1389 192.717 11.7458 194.538C12.3528 196.358 12.9954 198.108 13.4952 199.572C13.995 201.035 14.352 201.821 14.352 201.821C14.352 201.821 13.7451 203.856 13.2096 205.926C12.924 206.962 12.6384 207.997 12.4599 208.783L12.1742 210.068L13.3167 212.603C13.9593 214.102 14.9233 216.173 15.9586 218.029C16.994 219.886 17.9579 221.921 18.8147 223.349L20.1714 225.705L21.3852 226.241L24.1343 227.312C26.1336 228.097 28.1328 228.775 28.1328 228.775L29.4181 230.81C30.2392 231.989 31.346 233.559 32.4884 235.13C33.6309 236.701 34.7733 238.201 35.6659 239.307L37.1653 241.2V242.521C37.1653 243.306 37.1653 244.377 37.1653 245.412C37.1653 247.554 37.4866 249.697 37.4866 249.697L37.9865 250.268C38.2721 250.625 38.7362 251.125 39.3074 251.731L43.4488 256.051L47.8044 260.228C48.4113 260.8 48.9111 261.264 49.2681 261.549L49.8394 262.049L54.0878 262.335H58.3363L60.2285 263.834C61.3353 264.727 62.8347 265.905 64.4056 267.012L68.7255 270.082L70.7605 271.367C70.7605 271.367 71.4388 273.367 72.2242 275.366C72.5813 276.366 72.974 277.365 73.2953 278.079L73.8308 279.329L76.1871 280.685C77.6152 281.542 79.543 282.542 81.5066 283.542C83.4702 284.541 85.4338 285.541 86.969 286.184L89.4681 287.326L90.7533 287.005C91.5388 287.005 92.5741 286.576 93.6095 286.291C95.6801 285.755 97.7151 285.148 97.7151 285.148L99.9643 286.005C101.321 286.505 103.177 287.112 104.998 287.719C106.819 288.326 108.568 288.861 110.068 289.29L112.388 289.932C112.388 289.932 113.674 291.646 115.03 293.252C116.387 294.859 117.815 296.537 117.815 296.537C117.815 296.537 118.886 296.823 120.493 297.108L126.455 298.179C128.597 298.536 130.775 298.786 132.417 299L134.381 299.215H135.237C135.237 299.215 137.522 298.108 139.7 296.965C141.878 295.823 143.984 294.645 143.984 294.645H150.054H157.837C157.837 294.645 159.55 295.823 161.407 296.965C163.263 298.108 164.977 299.25 164.977 299.25L167.726 298.965C169.332 298.75 171.51 298.5 173.688 298.143L179.65 297.072L182.328 296.501C182.328 296.501 183.756 294.859 185.077 293.217C186.398 291.574 187.719 289.896 187.719 289.896L190.039 289.254C191.432 288.825 193.324 288.326 195.145 287.683L200.179 285.969L202.428 285.112C202.428 285.112 204.427 285.719 206.498 286.255L209.354 286.969L210.675 287.29L213.174 286.148C214.673 285.469 216.744 284.506 218.601 283.506C220.457 282.506 222.528 281.471 223.92 280.65L226.312 279.293L226.848 278.043C227.133 277.329 227.562 276.33 227.919 275.33C228.668 273.331 229.382 271.332 229.382 271.332L231.382 270.011C232.596 269.225 234.166 268.083 235.702 266.976C237.237 265.869 238.772 264.691 239.914 263.799L241.807 262.299H246.019L250.303 262.014L250.875 261.514L252.338 260.193L256.658 256.016C258.194 254.481 259.693 252.874 260.835 251.696L262.156 250.232L262.656 249.661C262.656 249.661 262.656 247.519 262.942 245.377C262.942 244.341 262.942 243.27 262.942 242.485V241.164L264.441 239.272C265.298 238.129 266.512 236.63 267.619 235.059C268.725 233.488 269.832 231.953 270.653 230.739L271.974 228.74L275.973 227.276C276.973 226.919 277.972 226.491 278.686 226.205L279.936 225.669L281.292 223.313C282.114 221.885 283.149 219.921 284.149 217.958C285.148 215.994 286.112 214.066 286.79 212.531L287.933 210.032L287.612 208.711C287.612 207.961 287.183 206.89 286.898 205.855C286.326 203.784 285.755 201.785 285.755 201.785C285.755 201.785 286.076 200.893 286.612 199.536C287.147 198.179 287.719 196.323 288.326 194.502C288.933 192.681 289.468 190.932 289.861 189.397L290.539 187.076C290.539 187.076 292.217 185.826 293.859 184.47C295.502 183.113 297.144 181.685 297.144 181.685C297.144 181.685 297.394 180.614 297.715 179.007C298.036 177.401 298.429 175.223 298.786 173.045C299.143 170.868 299.393 168.69 299.572 167.083L299.822 165.084V164.263C299.822 164.263 298.929 162.513 297.787 160.336ZM64.0129 55.4088C65.0125 54.4805 66.4049 52.9454 68.4042 51.3031C70.4035 49.6609 72.7598 47.7329 75.5445 45.3052L80.2214 41.7351C81.8993 40.5926 83.7915 39.4859 85.6123 38.1649C94.3886 32.8863 103.76 28.6678 113.531 25.598C119.051 24.0288 124.668 22.8242 130.346 21.9921C136.257 21.097 142.22 20.5961 148.197 20.4927C151.303 20.4927 154.124 20.4927 157.158 20.7069C160.193 20.9211 163.156 21.1353 166.084 21.528C171.817 22.2933 177.486 23.4867 183.042 25.0982C188.259 26.5092 193.366 28.299 198.322 30.4534C202.76 32.3628 207.086 34.5202 211.282 36.9154C214.815 38.9287 218.235 41.1336 221.528 43.5202C224.42 45.698 226.955 47.6259 228.918 49.3395C230.882 51.0532 232.488 52.4098 233.381 53.3381L234.952 54.8019L233.238 53.5166C232.131 52.6955 230.525 51.4102 228.418 49.9464C200.235 29.6595 165.3 21.0507 130.918 25.9193C120.131 27.4442 109.576 30.3106 99.5002 34.452C95.1186 36.2223 90.8396 38.2367 86.6834 40.4856C82.8276 42.6277 79.3645 44.6983 76.3299 46.6262C73.2953 48.5541 70.7962 50.4105 68.7612 51.9814C66.7262 53.5523 65.191 54.8375 64.0129 55.5516L62.3706 56.8726L64.0129 55.4088ZM35.4516 95.216C30.2965 107.03 26.6963 119.462 24.7412 132.203C24.2414 135.773 23.8129 139.165 23.5987 142.592C23.3845 146.019 23.206 149.518 23.1703 152.731C23.1458 158.694 23.4557 164.654 24.0986 170.582C24.6698 175.866 25.3481 180.257 25.9907 183.292C26.6334 186.326 26.919 188.076 26.919 188.076C26.919 188.076 26.2407 186.433 25.241 183.47C23.8016 179.368 22.6094 175.184 21.6709 170.939C20.4516 164.915 19.7233 158.802 19.4931 152.66C19.4931 149.09 19.4931 145.876 19.4931 142.271C19.4931 138.665 20.0643 135.13 20.5284 131.56C20.9925 127.99 21.778 124.42 22.5991 120.85C23.416 117.469 24.405 114.133 25.5623 110.853C28.8912 100.904 33.7058 91.5153 39.8429 83.0061C41.6994 80.4712 42.8062 79.0789 42.8062 79.0789L41.0925 83.613C39.6644 86.362 37.7009 90.3249 35.6302 95.216H35.4516ZM39.236 150.768C39.236 128.878 45.727 107.48 57.8881 89.28C70.0492 71.0796 87.3342 56.8941 107.557 48.5174C127.781 40.1407 150.034 37.949 171.502 42.2194C192.971 46.4898 212.691 57.0306 228.17 72.5087C243.648 87.9868 254.189 107.707 258.459 129.176C262.729 150.645 260.538 172.898 252.161 193.121C243.784 213.344 229.599 230.629 211.398 242.79C193.198 254.951 171.8 261.442 149.911 261.442C120.589 261.395 92.4842 249.714 71.7673 228.963C51.0503 208.213 39.4145 180.089 39.4145 150.768H39.236ZM278.079 163.406C277.687 167.404 277.187 172.296 276.33 177.901C275.205 184.138 273.581 190.274 271.474 196.251C270.903 197.894 270.332 199.607 269.761 201.321C269.19 203.035 268.226 204.641 267.476 206.355C265.957 209.952 264.203 213.447 262.228 216.815C260.282 220.442 258.099 223.936 255.694 227.276C253.363 230.863 250.774 234.276 247.947 237.487L243.52 242.449C242.056 244.127 240.307 245.555 238.701 247.126L233.667 251.767C231.881 253.195 230.096 254.552 228.204 255.944C226.312 257.337 224.634 258.8 222.599 260.05L216.601 263.62C212.602 266.069 208.453 268.263 204.177 270.189L201 271.689L197.679 272.867L191.075 275.259C186.648 276.83 182.042 277.686 177.579 278.829C173.117 279.971 168.511 280.257 164.013 280.9C159.514 281.542 155.052 281.292 150.661 281.507C148.34 281.507 146.341 281.507 144.199 281.328C142.056 281.15 139.879 280.971 137.737 280.793L131.56 279.9L125.562 278.793C118.242 277.224 111.074 275.014 104.141 272.189C93.7562 267.932 84.0025 262.275 75.1518 255.373C72.6644 253.48 70.2808 251.454 68.0115 249.304L65.5837 247.055L68.2257 249.054C69.9036 250.411 72.5098 252.16 75.8301 254.409C79.8355 257.018 83.9833 259.402 88.2542 261.549C93.8056 264.417 99.5151 266.968 105.355 269.19C112.251 271.627 119.347 273.455 126.562 274.652L132.381 275.473L138.379 276.044L144.484 276.33C146.555 276.33 148.804 276.33 150.803 276.33C155.016 276.044 159.3 275.866 163.62 275.473C167.94 275.08 172.224 274.188 176.544 273.295C180.864 272.403 185.184 271.225 189.397 269.725L195.68 267.369L198.822 266.226L201.857 264.763C205.966 262.976 209.95 260.912 213.781 258.586L219.493 255.016C221.385 253.838 223.063 252.41 224.884 251.125L230.168 247.162L235.059 242.842C236.665 241.342 238.379 240.057 239.807 238.451C241.235 236.844 242.735 235.344 244.163 233.774C246.982 230.736 249.628 227.541 252.089 224.206C254.547 221.082 256.801 217.802 258.836 214.388C260.886 211.229 262.723 207.937 264.334 204.534L266.762 199.714L268.654 194.895C270.964 189.141 272.92 183.251 274.509 177.258C275.759 171.867 276.58 167.083 277.258 163.156C278.044 155.159 278.508 150.589 278.508 150.589C278.508 150.589 278.294 155.373 278.258 163.406H278.079Z" fill="white"/>
<path d="M150.018 253.302C170.306 253.302 190.138 247.286 207.007 236.014C223.875 224.742 237.022 208.72 244.784 189.976C252.546 171.231 254.576 150.606 250.615 130.708C246.654 110.811 236.882 92.5343 222.534 78.191C208.185 63.8476 189.906 54.0816 170.006 50.1279C150.107 46.1742 129.483 48.2105 110.741 55.9793C91.9994 63.7481 75.9826 76.9004 64.7163 93.7728C53.45 110.645 47.4403 130.48 47.4474 150.768C47.4757 177.959 58.2925 204.028 77.5231 223.252C96.7537 242.476 122.826 253.283 150.018 253.302ZM156.658 204.498C156.665 202.789 156.881 201.086 157.301 199.429C157.651 197.938 158.19 196.498 158.908 195.145C159.882 192.853 161.714 191.033 164.013 190.075L164.727 189.825L166.298 189.182C166.869 188.968 167.405 188.683 167.833 188.504L168.511 188.183C170.805 187.276 173.358 187.276 175.652 188.183C177.117 188.638 178.52 189.274 179.829 190.075C181.303 190.945 182.658 192.001 183.863 193.217C183.863 193.217 185.541 194.93 188.147 197.43C190.753 199.929 194.288 203.177 197.965 206.319C200.5 208.533 203.07 210.639 205.355 212.46C191.461 225.019 173.711 232.484 155.016 233.631C155.337 230.632 155.694 227.205 155.944 223.813C156.266 218.993 156.48 214.209 156.516 210.568C156.551 206.926 156.658 204.498 156.658 204.498ZM206.641 197.751C203.463 194.181 200.179 190.611 197.679 188.004C195.18 185.398 193.431 183.72 193.431 183.72C192.201 182.519 191.132 181.163 190.253 179.686C189.455 178.389 188.819 176.998 188.361 175.544C187.429 173.256 187.429 170.693 188.361 168.404L189.29 166.262C189.504 165.691 189.718 165.155 189.896 164.763L190.111 164.049C191.073 161.765 192.875 159.938 195.145 158.943C198.054 157.469 201.273 156.71 204.534 156.73H210.568C214.138 156.73 218.958 156.551 223.777 156.123C226.955 155.873 230.061 155.48 232.917 155.088C231.955 173.545 224.827 191.145 212.674 205.07C210.818 202.785 208.89 200.25 206.569 197.751H206.641ZM223.849 143.949C219.029 143.592 214.281 143.413 210.639 143.342H204.534C202.825 143.366 201.12 143.162 199.465 142.735C197.964 142.379 196.513 141.84 195.145 141.128C192.861 140.141 191.046 138.313 190.075 136.023C190.075 136.023 190.075 135.737 189.861 135.309L189.218 133.738C189.004 133.167 188.718 132.631 188.54 132.203L188.219 131.489C187.282 129.201 187.282 126.636 188.219 124.348C188.674 122.883 189.309 121.48 190.111 120.171C190.949 118.685 191.982 117.316 193.181 116.101C193.181 116.101 194.895 114.423 197.394 111.817C199.893 109.211 203.177 105.677 206.319 101.999C208.247 99.7858 210.104 97.5366 211.782 95.4659C224.034 109.088 231.418 126.391 232.774 144.663L223.849 143.949ZM197.858 93.4309C194.288 96.5726 190.718 99.8929 188.111 102.392C185.505 104.891 183.827 106.641 183.827 106.641C182.619 107.863 181.264 108.93 179.793 109.818C178.492 110.61 177.102 111.245 175.652 111.71C173.361 112.631 170.802 112.631 168.511 111.71L166.369 110.782L164.87 110.175L164.191 109.925C163.017 109.466 161.945 108.778 161.038 107.902C160.131 107.026 159.407 105.978 158.908 104.82C157.433 101.922 156.662 98.7174 156.658 95.4659C156.658 95.4659 156.658 93.0382 156.658 89.4324C156.658 85.8265 156.658 81.0425 156.051 76.1871C155.837 73.3667 155.516 70.5462 155.159 67.94C173.297 69.0334 190.567 76.0868 204.284 88.0043C202.178 89.6823 200 91.5387 197.787 93.4309H197.858ZM184.363 150.768C184.363 157.555 182.35 164.19 178.578 169.833C174.807 175.475 169.446 179.873 163.175 182.469C156.904 185.064 150.003 185.742 143.347 184.415C136.691 183.088 130.578 179.817 125.781 175.015C120.984 170.213 117.719 164.097 116.399 157.439C115.08 150.781 115.764 143.882 118.366 137.613C120.969 131.345 125.372 125.989 131.018 122.223C136.665 118.458 143.302 116.451 150.089 116.458C159.167 116.496 167.861 120.126 174.27 126.556C180.679 132.985 184.282 141.69 184.291 150.768H184.363ZM143.377 210.532C143.377 214.102 143.377 218.922 143.984 223.777C144.27 227.347 144.663 230.596 145.091 233.595C126.469 232.504 108.765 225.143 94.859 212.71C97.1439 210.853 99.7144 208.711 102.214 206.533C105.784 203.392 109.354 200.071 111.996 197.572C114.638 195.073 116.244 193.324 116.244 193.324C117.46 192.11 118.814 191.044 120.279 190.146C121.591 189.353 122.994 188.718 124.456 188.254C126.744 187.322 129.307 187.322 131.596 188.254L133.738 189.218L135.237 189.789L135.951 190.039C138.242 191.028 140.068 192.854 141.057 195.145C142.52 198.058 143.278 201.274 143.27 204.534C143.27 204.534 143.306 206.926 143.377 210.532ZM143.984 76.1871C143.627 81.0068 143.449 85.7908 143.377 89.4324C143.306 93.0739 143.377 95.4659 143.377 95.4659C143.382 97.1742 143.178 98.8767 142.77 100.536C142.389 102.017 141.851 103.453 141.164 104.82C140.168 107.097 138.343 108.909 136.059 109.889L135.309 110.139L133.774 110.782C133.202 110.996 132.631 111.282 132.239 111.46L131.525 111.782C129.229 112.681 126.679 112.681 124.384 111.782C121.256 110.813 118.404 109.112 116.066 106.819L111.746 102.57C109.14 100.071 105.605 96.8226 101.964 93.6808C99.7501 91.753 97.5366 89.9322 95.4659 88.2542C109.161 76.2412 126.447 69.0984 144.627 67.94C144.627 70.5462 144.199 73.2596 143.984 76.1871ZM93.4666 102.213C96.6084 105.784 99.8929 109.354 102.428 111.96C104.963 114.566 106.676 116.244 106.676 116.244C107.906 117.436 108.964 118.794 109.818 120.279C110.628 121.575 111.275 122.966 111.746 124.42C112.678 126.709 112.678 129.271 111.746 131.56L110.782 133.738L110.211 135.237L109.961 135.916C109.01 138.248 107.174 140.109 104.855 141.092C101.946 142.567 98.7273 143.326 95.4659 143.306H89.4681C85.8979 143.306 81.0425 143.52 76.2228 143.913C73.1168 144.163 70.0464 144.556 67.226 144.913C68.499 126.641 75.8081 109.31 88.0043 95.6444C89.6823 97.7508 91.5388 100 93.4666 102.213ZM76.2228 156.016C81.0425 156.373 85.8265 156.551 89.4681 156.623C93.1096 156.694 95.4659 156.623 95.4659 156.623C97.1871 156.598 98.9039 156.802 100.571 157.23C102.053 157.611 103.489 158.149 104.855 158.836C107.147 159.81 108.967 161.643 109.925 163.941L110.175 164.656L110.782 166.226C111.032 166.798 111.317 167.333 111.496 167.762L111.782 168.476C112.718 170.764 112.718 173.328 111.782 175.616C111.333 177.084 110.697 178.488 109.889 179.793C109.026 181.271 107.969 182.628 106.748 183.827C106.748 183.827 105.034 185.505 102.535 188.111C100.036 190.718 96.7512 194.288 93.6095 197.929C91.4674 200.428 89.361 202.999 87.5402 205.284C75.2639 191.315 68.0456 173.622 67.0475 155.052C69.9393 155.373 73.2239 155.766 76.2228 156.016Z" fill="white"/>
</g>
</g>
<defs>
<clipPath id="clip0_1_3629">
<rect width="300" height="300" fill="white"/>
</clipPath>
<clipPath id="clip1_1_3629">
<rect width="300" height="300" fill="white"/>
</clipPath>
</defs>
</svg>
