<svg width="24" height="24" viewBox="0 0 24 24" fill="none" xmlns="http://www.w3.org/2000/svg">
<g id="location">
<g id="Vector">
<path fill-rule="evenodd" clip-rule="evenodd" d="M11.9999 6.43994C9.86255 6.43994 8.12989 8.1726 8.12989 10.3099C8.12989 12.4473 9.86255 14.1799 11.9999 14.1799C14.1372 14.1799 15.8699 12.4473 15.8699 10.3099C15.8699 8.1726 14.1372 6.43994 11.9999 6.43994ZM9.62989 10.3099C9.62989 9.00103 10.691 7.93994 11.9999 7.93994C13.3088 7.93994 14.3699 9.00103 14.3699 10.3099C14.3699 11.6189 13.3088 12.6799 11.9999 12.6799C10.691 12.6799 9.62989 11.6189 9.62989 10.3099Z" fill="white"/>
<path fill-rule="evenodd" clip-rule="evenodd" d="M12.0042 1.25C15.9848 1.25269 20.04 3.60029 21.1115 8.33441C22.3542 13.8242 18.928 18.3837 16.1201 21.0804C13.8187 23.3008 10.1797 23.2988 7.87045 21.0809L7.8695 21.08C5.07175 18.3836 1.64576 13.8139 2.88847 8.32441L2.88864 8.32364C3.96557 3.58953 8.02358 1.24731 12.0042 1.25ZM4.35136 8.65597C5.24457 4.73034 8.58645 2.74769 12.0032 2.75C15.4202 2.75231 18.7599 4.73971 19.6485 8.66556C20.7056 13.3354 17.8124 17.3756 15.0805 19.999L15.0791 20.0004C13.3606 21.659 10.6405 21.661 8.91002 19.9996C6.18796 17.376 3.29436 13.3261 4.35136 8.65597Z" fill="white"/>
<path fill-rule="evenodd" clip-rule="evenodd" d="M11.9999 6.43994C9.86255 6.43994 8.12989 8.1726 8.12989 10.3099C8.12989 12.4473 9.86255 14.1799 11.9999 14.1799C14.1372 14.1799 15.8699 12.4473 15.8699 10.3099C15.8699 8.1726 14.1372 6.43994 11.9999 6.43994ZM9.62989 10.3099C9.62989 9.00103 10.691 7.93994 11.9999 7.93994C13.3088 7.93994 14.3699 9.00103 14.3699 10.3099C14.3699 11.6189 13.3088 12.6799 11.9999 12.6799C10.691 12.6799 9.62989 11.6189 9.62989 10.3099Z" stroke="white"/>
<path fill-rule="evenodd" clip-rule="evenodd" d="M12.0042 1.25C15.9848 1.25269 20.04 3.60029 21.1115 8.33441C22.3542 13.8242 18.928 18.3837 16.1201 21.0804C13.8187 23.3008 10.1797 23.2988 7.87045 21.0809L7.8695 21.08C5.07175 18.3836 1.64576 13.8139 2.88847 8.32441L2.88864 8.32364C3.96557 3.58953 8.02358 1.24731 12.0042 1.25ZM4.35136 8.65597C5.24457 4.73034 8.58645 2.74769 12.0032 2.75C15.4202 2.75231 18.7599 4.73971 19.6485 8.66556C20.7056 13.3354 17.8124 17.3756 15.0805 19.999L15.0791 20.0004C13.3606 21.659 10.6405 21.661 8.91002 19.9996C6.18796 17.376 3.29436 13.3261 4.35136 8.65597Z" stroke="white"/>
</g>
</g>
</svg>
