<svg width="22" height="40" viewBox="0 0 22 40" fill="none" xmlns="http://www.w3.org/2000/svg">
<path fill-rule="evenodd" clip-rule="evenodd" d="M2.2 0H11C17.0751 0 22 5.11674 22 11.4286C22 14.842 20.5597 17.9059 18.276 20C20.5597 22.0941 22 25.158 22 28.5714C22 34.8833 17.0751 40 11 40H2.2C0.984973 40 0 38.9767 0 37.7143V2.28571C0 1.02335 0.984974 0 2.2 0ZM16.6571 28.5714C17.1779 28.5714 17.6071 29.0125 17.5336 29.5481C17.0773 32.8726 14.3259 35.4286 11 35.4286C7.67407 35.4286 4.92274 32.8726 4.46644 29.5481C4.39293 29.0125 4.82213 28.5714 5.34286 28.5714C5.86358 28.5714 6.27588 29.0144 6.3788 29.5448C6.81327 31.7836 8.71714 33.4694 11 33.4694C13.2829 33.4694 15.1867 31.7835 15.6212 29.5448C15.7241 29.0144 16.1364 28.5714 16.6571 28.5714Z" fill="white"/>
</svg>
