<svg width="24" height="24" viewBox="0 0 24 24" fill="none" xmlns="http://www.w3.org/2000/svg">
<g id="chevron-right">
<path id="Vector" d="M9.89063 20.8729L16.9135 13.1719C17.0662 13.0045 17.1741 12.8231 17.2372 12.6278C17.3013 12.4325 17.3334 12.2232 17.3334 12C17.3334 11.7768 17.3013 11.5675 17.2372 11.3722C17.1741 11.1769 17.0662 10.9955 16.9135 10.8281L9.89063 3.12706C9.61073 2.82013 9.25449 2.66667 8.82192 2.66667C8.38935 2.66667 8.03312 2.82013 7.75322 3.12706C7.47332 3.43398 7.33337 3.82461 7.33337 4.29895C7.33337 4.77329 7.47332 5.16393 7.75322 5.47085L13.7074 12L7.75322 18.5291C7.47332 18.8361 7.33337 19.2267 7.33337 19.701C7.33337 20.1754 7.47332 20.566 7.75322 20.8729C8.03312 21.1799 8.38935 21.3333 8.82192 21.3333C9.25449 21.3333 9.61073 21.1799 9.89063 20.8729Z" fill="#0072ED"/>
</g>
</svg>
