<svg width="170" height="300" viewBox="0 0 170 300" fill="none" xmlns="http://www.w3.org/2000/svg">
<path d="M38.613 188.43C37.963 188.865 37.4933 189.521 37.2914 190.277C37.0896 191.033 37.1694 191.837 37.516 192.538C37.6422 192.93 37.8471 193.291 38.1182 193.6C38.3892 193.909 38.7206 194.159 39.0919 194.335C39.4633 194.511 39.8666 194.609 40.2772 194.623C40.6878 194.637 41.0969 194.566 41.4792 194.416C41.8366 194.242 42.1498 193.989 42.3951 193.676C42.6403 193.363 42.8111 192.998 42.8946 192.609C43.0627 191.774 42.9245 190.907 42.5054 190.165C42.1854 189.446 41.6106 188.87 40.8919 188.55C40.1731 188.23 39.3614 188.187 38.613 188.43Z" fill="white"/>
<path d="M2.16579 188.996C1.96877 188.709 1.70055 188.477 1.3873 188.323C0.643387 188.098 -0.156876 188.15 -0.865768 188.469C-1.57466 188.788 -2.14444 189.352 -2.46983 190.059C-2.69389 190.4 -2.84618 190.783 -2.91766 191.185C-2.98914 191.587 -2.97826 191.999 -2.88559 192.397C-2.79292 192.795 -2.62039 193.169 -2.37859 193.498C-2.13678 193.827 -1.83078 194.103 -1.47903 194.309C-1.13187 194.495 -0.739792 194.581 -0.346664 194.557C0.0475922 194.552 0.435242 194.455 0.78569 194.274C1.54391 193.881 2.13461 193.227 2.44884 192.432C2.72655 191.629 2.72655 190.756 2.44884 189.953C2.40891 189.62 2.31325 189.297 2.16579 188.996Z" fill="white"/>
<path d="M-22.6396 159.386L-21.8258 159.209C-22.105 158.481 -22.6408 157.881 -23.3319 157.523C-24.0231 157.164 -24.8216 157.071 -25.5767 157.261C-25.9943 157.299 -26.3996 157.423 -26.767 157.625C-27.1345 157.827 -27.4562 158.103 -27.7121 158.436C-27.9679 158.769 -28.1523 159.15 -28.2537 159.558C-28.3551 159.965 -28.3713 160.389 -28.3013 160.803C-28.1745 161.194 -27.9697 161.556 -27.6993 161.866C-27.4289 162.176 -27.0986 162.428 -26.7282 162.607C-26.3578 162.786 -25.9551 162.888 -25.5443 162.906C-25.1335 162.925 -24.7232 162.86 -24.3382 162.715C-23.5496 162.552 -22.8521 162.096 -22.3859 161.439C-21.9198 160.782 -21.7197 159.972 -21.8258 159.173L-22.6396 159.351V159.386Z" fill="white"/>
<path d="M-18.4641 119.044L-18.7472 118.796C-18.9778 119.133 -19.1366 119.514 -19.2135 119.916C-19.2904 120.317 -19.2838 120.73 -19.1941 121.129C-19.1045 121.528 -18.9337 121.904 -18.6924 122.234C-18.4511 122.564 -18.1446 122.84 -17.7918 123.046C-17.2137 123.566 -16.4637 123.854 -15.6863 123.854C-14.909 123.854 -14.159 123.566 -13.5809 123.046C-13.188 122.375 -13.0539 121.583 -13.2038 120.82C-13.3537 120.056 -13.7774 119.374 -14.3948 118.902C-14.673 118.603 -15.0098 118.364 -15.3842 118.201C-15.7586 118.038 -16.1626 117.953 -16.571 117.953C-16.9794 117.953 -17.3834 118.038 -17.7578 118.201C-18.1322 118.364 -18.469 118.603 -18.7472 118.902L-18.4641 119.044Z" fill="white"/>
<path d="M19.9293 106.753C20.2767 106.735 20.6155 106.638 20.9201 106.47C21.2481 106.309 21.5377 106.08 21.7693 105.797C22.3148 105.151 22.6266 104.34 22.654 103.495C22.7212 102.649 22.4826 101.806 21.9816 101.122C21.7348 100.808 21.4203 100.553 21.0617 100.378C20.7084 100.205 20.3225 100.108 19.9293 100.094C19.5096 100.127 19.1015 100.248 18.7313 100.449C18.3611 100.649 18.0372 100.925 17.7803 101.259C17.5235 101.593 17.3396 101.977 17.2404 102.387C17.1412 102.796 17.1291 103.222 17.2047 103.636C17.2274 104.392 17.5116 105.115 18.0086 105.684C18.5056 106.252 19.1846 106.63 19.9293 106.753Z" fill="white"/>
<path d="M-19.3488 108.099C-21.0827 109.799 -22.4274 111.252 -23.3474 112.314C-24.2675 113.377 -24.7628 114.014 -24.7628 114.014L-24.3382 114.333L-24.869 114.05L-26.1783 115.785C-27.0275 116.919 -28.1599 118.583 -29.3984 120.638C-30.7451 122.997 -31.9275 125.447 -32.9369 127.969C-34.124 130.901 -35.0823 133.921 -35.8032 137.001C-36.4847 140.079 -36.9225 143.205 -37.1124 146.352C-37.3102 149.087 -37.3102 151.834 -37.1124 154.569C-36.8647 156.942 -36.5817 158.926 -36.2986 160.307L-35.8739 162.468C-35.8739 162.468 -35.697 163.247 -35.3431 164.593C-34.9893 165.939 -34.3878 167.851 -33.5385 170.118C-32.5113 172.679 -31.3296 175.174 -30 177.592C-28.4524 180.336 -26.6893 182.954 -24.7274 185.419C-21.0665 190.034 -16.7089 194.049 -11.8117 197.32C-10.8209 198.028 -9.86546 198.524 -9.05159 199.091L-6.8577 200.295C-6.25614 200.649 -5.72534 200.862 -5.40687 201.039L-4.87611 201.287L-4.34534 201.535L-2.85909 202.208C-1.08978 202.972 0.717209 203.646 2.55492 204.227L4.35962 204.793L6.34122 205.289L8.42896 205.75C9.15254 205.929 9.88478 206.071 10.6228 206.175C19.5421 207.666 28.6878 207.01 37.3037 204.262C38.4714 203.908 39.4622 203.447 40.4177 203.164L42.753 202.208L44.2393 201.499L44.77 201.251C45.4428 200.97 46.0935 200.639 46.7163 200.26C47.4831 199.891 48.2274 199.477 48.9455 199.02L50.2902 198.205L51.741 197.249C56.6542 193.973 61.0344 189.959 64.7276 185.348C68.3562 180.736 71.2672 175.601 73.3617 170.118C73.751 168.985 74.1756 167.958 74.4233 167.001C74.671 166.045 75.0248 165.266 75.1663 164.557L75.6972 162.397L76.1571 160.236C76.3341 159.528 76.4049 158.678 76.5464 157.686C76.688 156.694 76.7941 155.632 76.9356 154.427C77.9716 142.617 75.2599 130.781 69.1861 120.602L68.2662 119.115L67.4169 117.804C66.8861 116.989 66.3554 116.281 65.9661 115.714C65.1523 114.581 64.6215 113.979 64.6215 113.979L64.2322 113.518C63.9845 113.235 63.6661 112.774 63.2061 112.243L61.5075 110.366C60.7998 109.693 60.0921 108.843 59.172 108.064C54.9142 104.005 50.0416 100.645 44.7347 98.111C41.9134 96.6873 38.9779 95.5025 35.959 94.5691C35.2513 94.3211 34.5082 94.2149 33.8004 94.0024L31.7127 93.5065L29.7311 93.1169L27.8557 92.8335C25.9315 92.5579 23.9946 92.3806 22.0525 92.3023H19.8586V92.7981V92.5148H19.2924C18.9385 92.5148 18.3723 92.5148 17.6646 92.5148H15.1522C14.1968 92.5148 13.0998 92.6919 11.9321 92.9044C2.95367 94.203 -5.59277 97.6005 -13.0148 102.822C-15.2403 104.439 -17.3563 106.202 -19.3488 108.099ZM-3.28371 101.263C1.67616 98.8305 6.99165 97.2044 12.4629 96.4463C13.5952 96.2338 14.6215 96.1983 15.5061 96.0921H17.8769C18.3835 96.0596 18.8919 96.0596 19.3985 96.0921H19.9293H20.4955C21.0022 96.0598 21.5104 96.0598 22.0171 96.0921C23.8295 96.1568 25.637 96.3224 27.4311 96.588L29.2003 96.836L31.0758 97.2255C31.7127 97.2255 32.3496 97.5089 33.022 97.686C33.6943 97.8631 34.4021 97.9693 35.0744 98.2172C37.901 99.05 40.6577 100.104 43.3192 101.37C48.2771 103.76 52.8366 106.902 56.8366 110.685C57.6858 111.464 58.3581 112.243 59.0305 112.881L60.6229 114.652C61.0829 115.148 61.366 115.573 61.6137 115.821L61.9321 116.246C62.3956 116.77 62.8214 117.326 63.2061 117.91C63.5953 118.442 64.0907 119.079 64.586 119.858L65.4 121.098L66.2492 122.479C69.0538 127.268 71.1289 132.449 72.4063 137.851C73.6017 143.23 73.9834 148.758 73.5386 154.25C73.5386 155.384 73.3264 156.411 73.1494 157.332C72.9725 158.253 72.9371 159.032 72.7956 159.669C72.5125 160.98 72.3709 161.724 72.3709 161.724L71.8401 163.778C71.6648 164.559 71.4403 165.328 71.1678 166.08C70.9555 166.966 70.5308 167.922 70.1769 168.985C66.2387 179.394 59.1339 188.301 49.8656 194.451L48.5209 195.372L47.2471 196.116C46.4686 196.612 45.7609 196.966 45.1593 197.285C43.9916 197.922 43.3192 198.205 43.3192 198.205L42.8239 198.453L41.4438 199.091L39.2144 200.012C38.3652 200.295 37.4099 200.72 36.3129 201.039C31.0622 202.716 25.5825 203.565 20.0709 203.554C17.1189 203.573 14.1708 203.336 11.2598 202.845C10.552 202.845 9.87978 202.562 9.20744 202.42C8.53941 202.316 7.87782 202.174 7.22586 201.995L5.38573 201.535L3.68729 201.004C1.95392 200.463 0.25264 199.825 -1.40826 199.091C-1.89348 198.91 -2.36629 198.697 -2.82367 198.453L-3.28371 198.241L-3.77916 197.993C-4.24131 197.798 -4.69047 197.573 -5.12383 197.32C-5.69 196.966 -6.43309 196.647 -7.21157 196.151C-7.99006 195.655 -8.87463 195.195 -9.79466 194.522C-14.3993 191.462 -18.4951 187.697 -21.932 183.365C-23.7679 181.039 -25.424 178.576 -26.886 175.998C-28.1422 173.714 -29.2416 171.347 -30.1769 168.914C-30.856 167.186 -31.4466 165.425 -31.9461 163.636L-32.4769 161.653H-33.1492L-32.4769 161.476L-32.8662 159.457C-33.1139 158.182 -33.397 156.34 -33.6093 154.073C-33.7909 151.514 -33.7909 148.946 -33.6093 146.387C-33.4104 143.433 -32.9964 140.497 -32.3708 137.603C-31.6711 134.711 -30.7725 131.871 -29.6814 129.103C-28.6527 126.738 -27.4707 124.442 -26.1428 122.231C-24.9751 120.283 -23.9136 118.69 -23.1351 117.698L-21.8966 116.033L-20.5519 114.475C-19.3767 113.083 -18.1244 111.759 -16.8011 110.508C-14.9203 108.745 -12.9223 107.112 -10.8209 105.62C-8.4251 103.974 -5.90511 102.518 -3.28371 101.263Z" fill="white"/>
<path d="M-15.7748 134.947C-16.5654 136.941 -17.2158 138.989 -17.7211 141.074C-18.1766 143.174 -18.4723 145.305 -18.6058 147.45C-18.7311 149.289 -18.7311 151.136 -18.6058 152.975C-18.4288 154.569 -18.2518 155.88 -18.0749 156.836C-17.898 157.792 -17.7918 158.288 -17.7918 158.288C-17.6377 158.753 -17.5078 159.226 -17.4027 159.705C-17.155 160.626 -16.7656 161.936 -16.1994 163.459C-15.6333 164.982 -14.8195 166.718 -13.8287 168.524C-12.7875 170.384 -11.6045 172.16 -10.2901 173.837C-7.82355 176.954 -4.8867 179.666 -1.58525 181.877C-0.912918 182.373 -0.240601 182.692 0.290192 183.081L1.77644 183.896C2.16568 184.144 2.5195 184.25 2.73181 184.392H3.08569C3.51245 184.647 3.96275 184.861 4.43037 185.03C5.58554 185.55 6.76662 186.011 7.96893 186.411L9.20746 186.801L10.5521 187.119C11.0268 187.263 11.5118 187.37 12.003 187.438C12.463 187.438 12.9583 187.686 13.4891 187.721C15.5815 188.078 17.7006 188.256 19.8232 188.253C23.7861 188.267 27.7265 187.657 31.5004 186.446C32.2789 186.234 32.9512 185.88 33.5882 185.703L35.1806 185.03C35.5226 184.903 35.854 184.749 36.1713 184.569H36.5252C36.9905 184.367 37.44 184.13 37.8699 183.861C38.3974 183.615 38.906 183.331 39.3915 183.011L40.3115 182.479L41.2669 181.842C47.9423 177.43 53.0566 171.021 55.8812 163.53C56.1643 162.751 56.4474 162.078 56.6243 161.405C56.8012 160.732 57.0136 160.236 57.1197 159.74C57.2259 159.244 57.5089 158.253 57.5089 158.253C57.5089 158.253 57.5089 157.721 57.792 156.765C57.9206 156.193 58.0152 155.613 58.0751 155.03C58.0751 154.392 58.0751 153.648 58.3228 152.834C58.6379 148.883 58.3636 144.908 57.5089 141.039C56.6081 137.145 55.1036 133.416 53.0503 129.988L52.4841 128.961L51.8826 128.076C51.5287 127.509 51.1749 127.048 50.8918 126.659C50.6087 126.269 49.9718 125.49 49.9718 125.49L49.7949 125.242C49.5872 124.957 49.3627 124.685 49.1225 124.427L47.9902 123.152C47.4948 122.692 46.9994 122.125 46.3979 121.594C43.5337 118.855 40.2481 116.594 36.6668 114.9C34.7528 113.968 32.7642 113.197 30.7219 112.597C30.2619 112.42 29.7312 112.35 29.2358 112.208L27.8204 111.889L26.4757 111.606H25.2018C23.9005 111.411 22.5891 111.293 21.274 111.251C20.7791 111.22 20.2827 111.22 19.7878 111.251H19.3986C19.0336 111.219 18.6665 111.219 18.3016 111.251H16.6385C15.9662 111.251 15.223 111.252 14.4445 111.535C10.4922 112.095 6.65639 113.291 3.08569 115.077C1.16614 116.009 -0.679306 117.086 -2.43447 118.3C-3.94991 119.399 -5.40302 120.581 -6.78695 121.842C-7.73701 122.746 -8.63483 123.704 -9.47619 124.711L-10.4317 125.844L-11.3163 127.013C-11.8825 127.792 -12.6609 128.89 -13.4748 130.272C-14.3535 131.772 -15.1222 133.335 -15.7748 134.947ZM-10.3255 131.759C-9.58242 130.52 -8.87464 129.492 -8.37924 128.819C-7.88384 128.146 -7.56533 127.721 -7.56533 127.721L-6.68069 126.694C-5.91119 125.791 -5.09636 124.928 -4.23917 124.109C-1.56599 121.609 1.46301 119.52 4.74883 117.91C8.01338 116.341 11.4975 115.278 15.0815 114.758C15.7892 114.758 16.4615 114.758 17.0631 114.546C17.6646 114.333 18.16 114.546 18.5847 114.546H19.9293C20.377 114.514 20.8263 114.514 21.274 114.546C22.4601 114.557 23.6434 114.664 24.8126 114.864H25.9803L27.2188 115.148C27.6612 115.212 28.0986 115.306 28.528 115.431C28.9527 115.431 29.4127 115.431 29.8727 115.785C31.7355 116.32 33.5473 117.02 35.2867 117.875C38.5194 119.425 41.4918 121.468 44.0977 123.932C44.6639 124.427 45.0885 124.959 45.5485 125.348C46.0085 125.738 46.2917 126.234 46.5748 126.517C46.8578 126.8 47.0701 127.155 47.2117 127.296L47.4594 127.58C47.4594 127.58 47.7779 127.969 48.2733 128.678C48.7687 129.386 48.8748 129.457 49.1933 129.953L49.724 130.767L50.2549 131.688C54.0119 137.936 55.6965 145.214 55.0673 152.479C55.0673 153.188 55.0673 153.896 54.8196 154.498C54.5719 155.1 54.8197 155.596 54.572 156.057C54.3243 156.517 54.2888 157.403 54.2888 157.403C54.2888 157.403 54.2888 157.898 53.9349 158.749C53.5811 159.599 53.6519 159.705 53.5103 160.272C53.3688 160.838 53.0857 161.511 52.838 162.22C51.5525 165.57 49.7755 168.709 47.5656 171.535C45.2813 174.378 42.5719 176.851 39.533 178.867L38.6484 179.469L37.8345 179.929C37.3881 180.212 36.9274 180.472 36.4544 180.708C36.058 180.952 35.6441 181.165 35.216 181.346H34.8975C34.6852 181.346 34.4021 181.629 33.9774 181.771L32.5266 182.373C31.9604 182.373 31.3589 182.834 30.6158 183.046C27.1848 184.145 23.6022 184.694 20.0001 184.675C18.0673 184.701 16.1364 184.547 14.2322 184.215C13.7722 184.215 13.3122 184.002 12.8522 183.932C12.42 183.875 11.9937 183.78 11.5782 183.648L10.3398 183.365L9.20746 183.011C7.79202 182.55 6.65964 182.09 5.84578 181.736C5.42143 181.601 5.01686 181.41 4.64267 181.169H4.32422C4.02196 181.043 3.72665 180.901 3.43958 180.744C3.08571 180.496 2.5903 180.283 2.09489 180C1.5995 179.717 0.998016 179.362 0.396454 178.902C-2.6113 176.901 -5.28615 174.438 -7.53002 171.606C-8.73895 170.067 -9.83858 168.446 -10.8209 166.753C-11.7409 165.124 -12.3779 163.495 -12.9794 162.149C-13.581 160.803 -13.8287 159.563 -14.0764 158.607C-14.3241 157.651 -14.3949 157.296 -14.3949 157.296C-14.3949 157.296 -14.3948 156.836 -14.6779 155.986C-14.961 155.136 -14.9964 153.932 -15.1379 152.444C-15.2649 150.782 -15.2649 149.112 -15.1379 147.45C-14.996 145.498 -14.7241 143.557 -14.324 141.641C-13.8561 139.739 -13.2651 137.87 -12.5547 136.045C-11.91 134.567 -11.1652 133.135 -10.3255 131.759Z" fill="white"/>
<path d="M-100.594 177.308L-99.4267 181.948C-98.6129 184.888 -97.3743 189.032 -95.5343 193.92C-93.3914 199.446 -90.8731 204.818 -87.9971 210C-84.6765 215.932 -80.8776 221.582 -76.6383 226.895C-68.6991 236.879 -59.2561 245.567 -48.6482 252.645C-46.5251 254.168 -44.4373 255.337 -42.6326 256.435C-40.8279 257.533 -39.0941 258.383 -37.8556 259.126C-36.6171 259.87 -35.414 260.366 -34.7062 260.72L-33.5739 261.251L-32.4416 261.818C-31.6985 262.172 -30.6369 262.668 -29.2215 263.235C-25.379 264.929 -21.445 266.407 -17.438 267.662L-13.581 268.831L-9.37006 269.929C-7.95464 270.283 -6.4684 270.602 -4.91143 270.921C-3.35446 271.24 -1.83296 271.559 -0.240601 271.806C13.2096 274.026 26.9321 274.026 40.3822 271.806C46.2417 270.809 52.0238 269.401 57.6858 267.592C60.1628 266.848 62.3921 265.962 64.3737 265.254L69.4339 263.164C70.8493 262.597 71.8755 262.031 72.6185 261.712L73.7509 261.181L73.1494 259.941L73.7155 261.145C73.7155 261.145 75.3079 260.472 77.9618 259.02C79.3065 258.276 80.9342 257.426 82.7389 256.328L85.6406 254.593L88.7544 252.538C110.116 238.305 126.488 217.731 135.57 193.707C136.49 191.263 137.304 189.032 137.905 187.013C138.507 184.994 139.073 183.223 139.427 181.771L140.595 177.131L141.55 172.491C141.868 171.004 142.116 169.162 142.435 167.072C142.753 164.982 143.001 162.609 143.249 159.988C145.402 134.398 139.539 108.773 126.476 86.6706C125.803 85.5372 125.166 84.4746 124.529 83.4829L122.689 80.6494C121.522 78.8784 120.425 77.3908 119.54 76.1865C117.771 73.7072 116.638 72.3967 116.638 72.3967L115.86 71.4404C115.329 70.8028 114.621 69.8465 113.595 68.7131L110.057 64.6399C108.57 63.1523 106.943 61.3814 105.032 59.6104C100.719 55.5308 96.1189 51.7666 91.2669 48.3471C80.1016 40.4906 67.7313 34.5089 54.6427 30.6375C53.0857 30.1417 51.5288 29.8229 50.0426 29.4333C48.5564 29.0437 47.0347 28.6541 45.5839 28.3707L41.3376 27.5561L37.339 26.9185C32.1727 26.2101 27.8557 25.9268 24.8125 25.7851C23.291 25.7851 22.0878 25.7851 21.274 25.7851H20.0354H18.7615C17.9476 25.7851 16.7799 25.7851 15.2229 25.7851C13.666 25.7851 11.8613 25.7851 9.73819 26.1039C7.61505 26.4227 5.24422 26.4935 2.66106 26.9185C-22.7043 30.5652 -46.3231 41.9714 -64.961 59.575C-68.7472 63.1169 -71.6843 66.3755 -73.6659 68.6777L-76.709 72.2196L-79.6107 76.0094C-81.4154 78.4534 -83.8924 82.0661 -86.6878 86.6352C-89.7034 91.7603 -92.3408 97.0992 -94.5789 102.609C-97.1152 108.912 -99.1618 115.401 -100.701 122.019C-102.192 128.637 -103.151 135.365 -103.567 142.137C-103.925 148.037 -103.854 153.956 -103.354 159.847C-102.894 165.053 -102.222 169.374 -101.656 172.349L-100.594 177.308ZM-20.2335 210.531C-21.9674 213.825 -24.1967 218.253 -26.3198 222.715C-27.3814 224.982 -28.443 227.249 -29.3984 229.374C-47.6179 217.936 -61.3594 200.58 -68.3227 180.213L-61.2455 178.69C-51.5852 176.564 -42.1018 173.837 -42.1018 173.837L-41.4295 175.431C-41.0403 176.493 -40.3326 177.91 -39.5541 179.646C-35.3412 187.978 -29.4496 195.347 -22.2505 201.287C-21.5428 201.924 -20.8351 202.42 -20.2335 202.916C-19.6319 203.412 -19.0658 203.802 -18.6058 204.085L-17.1903 205.077L-20.2335 210.531ZM20 243.577C9.30264 243.573 -1.31441 241.728 -11.3871 238.123C-10.2901 236.033 -9.15777 233.766 -8.06081 231.499C-5.93767 227.037 -3.84996 222.503 -2.36377 219.103L0.0778656 213.436L1.741 213.967L3.68727 214.427C4.522 214.685 5.37321 214.887 6.23505 215.03C10.7823 216.005 15.4205 216.492 20.0709 216.482C24.7105 216.509 29.3388 216.022 33.8713 215.03C34.7913 215.03 35.6405 214.64 36.3836 214.463L38.3298 213.932L39.9929 213.436C39.9929 213.436 40.9483 215.703 42.4346 219.103C43.9207 222.503 45.9732 227.037 48.1671 231.464C49.2641 233.731 50.4317 235.998 51.4933 238.087C41.3919 241.727 30.7361 243.585 20 243.577ZM69.54 229.41C68.5846 227.249 67.523 224.982 66.4615 222.715C62.1798 213.719 57.4382 205.006 57.4382 205.006L57.8273 204.758L58.889 204.014C59.7736 203.341 61.0829 202.42 62.4276 201.216C66.0115 198.251 69.2838 194.928 72.1939 191.299C75.0659 187.649 77.5671 183.722 79.6604 179.575L80.7573 177.273C81.0758 176.564 81.3235 175.927 81.5358 175.431L82.0666 174.227V173.802C82.0666 173.802 91.55 176.494 101.246 178.619L108.323 180.106C101.386 200.476 87.6855 217.851 69.5047 229.339L69.54 229.41ZM93.4254 104.026C95.2654 102.574 96.9639 101.086 98.7332 99.7049C108.403 114.732 113.539 132.232 113.524 150.106C113.508 153.656 113.308 157.203 112.923 160.732C110.694 160.201 108.358 159.599 105.846 159.067C96.1855 156.765 86.4544 155.1 86.4544 155.1V148.406C86.3759 143.768 85.8185 139.151 84.7912 134.628C83.7319 130.094 82.2143 125.679 80.2619 121.452C79.4834 119.717 78.705 118.335 78.2095 117.344C78.0241 116.951 77.8113 116.572 77.5726 116.21L77.3249 115.821C77.3249 115.821 85.676 110.224 93.39 103.955L93.4254 104.026ZM29.9081 77.4262C29.9081 73.8843 30.1204 68.7485 30.1204 63.7898C30.1204 61.523 30.1204 59.2562 30.1204 57.0602C51.3763 59.3493 71.2016 68.8774 86.2775 84.0496L80.8989 88.1936C77.0419 91.2751 73.2202 94.4275 70.2832 96.836L65.6123 100.909L64.3383 99.7049C63.9491 99.3153 63.4183 98.9256 62.8168 98.4297C62.2152 97.9339 61.5782 97.3318 60.7997 96.8005C57.1283 93.9578 53.1667 91.5121 48.9809 89.5042C44.7904 87.4957 40.4026 85.9288 35.8883 84.8288C34.9683 84.5809 34.0836 84.4038 33.3405 84.2621L31.3589 83.8725L29.6249 83.6246C29.6249 83.6246 29.6957 81.0744 29.8727 77.3554L29.9081 77.4262ZM15.0106 89.575C16.0368 89.575 16.9215 89.575 17.6646 89.575C18.2303 89.5425 18.7974 89.5425 19.3631 89.575H19.9647V87.8395V89.2562H20.6016C21.1674 89.2276 21.7343 89.2276 22.3001 89.2562C24.3373 89.3175 26.3694 89.4949 28.3864 89.7875L30.368 90.0708L32.4559 90.5313C33.1977 90.6459 33.9307 90.8116 34.6498 91.0272C35.3929 91.2397 36.1713 91.3814 36.9144 91.6293C40.1014 92.539 43.2034 93.7241 46.1854 95.1712C51.7904 97.8976 56.9361 101.483 61.4368 105.797C62.3568 106.647 63.1352 107.532 63.8783 108.241L65.6476 110.224C66.0379 110.652 66.4042 111.102 66.7446 111.57L67.1338 112.031C67.6362 112.62 68.1086 113.235 68.5492 113.873C69.0092 114.475 69.54 115.183 70.1062 116.069L71.0263 117.45L71.9462 119.008C75.1241 124.366 77.4519 130.185 78.8465 136.257C80.2065 142.308 80.6361 148.531 80.1204 154.711C80.0592 155.898 79.9292 157.081 79.7311 158.253C79.5542 159.28 79.4834 160.165 79.3065 160.909C79.0234 162.361 78.8465 163.211 78.8465 163.211L78.245 165.478C78.245 166.222 77.7849 167.072 77.5018 168.064C77.2187 169.056 76.7941 170.154 76.3694 171.322C71.957 183.016 63.9856 193.027 53.5811 199.941L52.0595 200.968L50.6441 201.818C49.7594 202.349 48.9455 202.775 48.3086 203.093C47.6336 203.487 46.9365 203.842 46.2208 204.156L45.6547 204.439C45.3008 204.439 44.8054 204.864 44.0977 205.148L41.6207 206.175C40.6653 206.494 39.5683 206.954 38.3652 207.308C32.4646 209.207 26.3044 210.175 20.1062 210.177C16.7992 210.163 13.4984 209.89 10.2336 209.362C9.41977 209.362 8.67667 209.044 7.89818 208.902C7.15889 208.774 6.42665 208.609 5.70428 208.406L3.65186 207.91L1.741 207.308C-0.208038 206.694 -2.12175 205.973 -3.99148 205.148C-4.53805 204.949 -5.07005 204.712 -5.58376 204.439L-6.11464 204.191L-6.6454 203.908C-6.99926 203.731 -7.56544 203.518 -8.20238 203.164L-10.5024 201.854C-11.3517 201.287 -12.4132 200.756 -13.4394 200.012C-18.5995 196.561 -23.1951 192.331 -27.0629 187.473C-29.1193 184.866 -30.9765 182.107 -32.6185 179.221C-33.9619 176.665 -35.1438 174.027 -36.1571 171.322C-36.8841 169.421 -37.5101 167.482 -38.0325 165.514L-38.6341 163.247C-38.6341 163.247 -38.634 162.432 -39.094 160.98C-39.9945 156.136 -40.3035 151.2 -40.0141 146.281C-39.7881 142.956 -39.315 139.653 -38.5987 136.399C-37.8467 133.161 -36.841 129.987 -35.5909 126.907C-34.58 124.184 -33.3615 121.544 -31.9462 119.008C-30.8501 117.297 -29.6691 115.642 -28.4076 114.05L-27.0275 112.208L-25.5059 110.437C-24.1793 108.878 -22.7739 107.389 -21.295 105.974C-19.1703 104.006 -16.9249 102.172 -14.5718 100.484C-11.8376 98.5909 -8.96307 96.9095 -5.97307 95.4546C-0.392456 92.7393 5.57675 90.911 11.7198 90.0354C12.7814 89.6812 14.0553 89.6458 14.9753 89.5042L15.0106 89.575ZM9.9505 57.0956C9.9505 59.2562 9.9505 61.523 9.9505 63.7898C9.9505 68.7485 9.95049 73.7072 10.1628 77.4262C10.3751 81.1452 10.4105 83.6246 10.4105 83.6246L8.71198 83.8725C8.14581 83.8725 7.50888 84.1204 6.73039 84.2621C5.88269 84.4022 5.04385 84.5915 4.21803 84.8288C-0.298477 85.9374 -4.68667 87.5163 -8.87472 89.5396C-13.0684 91.5673 -17.0409 94.0243 -20.7288 96.8713C-22.215 98.0756 -23.4535 99.0319 -24.2674 99.8111L-25.5768 100.98C-25.5768 100.98 -32.937 94.4274 -40.7219 88.2999C-42.5265 86.8477 -44.2604 85.4664 -46.1004 84.1204C-31.0783 68.9359 -11.3053 59.3713 9.91508 57.0248L9.9505 57.0956ZM-58.6977 99.5986C-56.9992 101.015 -55.1592 102.503 -53.4253 103.955C-45.7112 110.189 -37.6786 115.891 -37.6786 115.891L-37.8909 116.316L-38.4925 117.414C-38.8417 117.988 -39.1605 118.579 -39.4479 119.185L-40.5803 121.523C-42.5203 125.764 -44.026 130.19 -45.0742 134.734C-46.0824 139.285 -46.6395 143.923 -46.7374 148.583V151.169C-46.7374 151.948 -46.7374 152.621 -46.7374 153.152V154.427C-46.754 154.58 -46.754 154.735 -46.7374 154.888C-46.7374 154.888 -56.4684 156.553 -66.0933 158.855C-68.4642 159.386 -70.7996 159.988 -73.1705 160.555C-73.5668 157.027 -73.7677 153.48 -73.7721 149.929C-73.6388 132.151 -68.42 114.784 -58.7332 99.882L-58.6977 99.5986Z" fill="white"/>
<path d="M167.559 155.03L165.081 152.444V148.512C165.081 146.175 165.081 143.022 164.763 139.87C164.445 136.718 164.197 133.636 163.949 131.263L163.383 127.403L165.506 124.498C166.603 123.011 167.594 121.523 167.594 121.523L166.462 116.069L165.081 110.685L164.126 110.118L161.932 108.914L158.747 107.249L157.58 103.53C156.766 101.299 155.775 98.3235 154.572 95.4192L152.803 91.2043C152.236 89.8583 151.635 88.6187 151.139 87.6624L149.901 85.1122C149.754 84.7727 149.589 84.4417 149.406 84.1204L150.538 80.5785L151.6 77.0366L150.786 75.5136L148.839 72.2196C148.132 71.0508 147.424 69.8465 146.858 68.9965L145.902 67.5443L142.364 66.8359L138.825 66.2338L136.136 62.6919C134.791 60.8501 133.34 59.1499 133.34 59.1499C133.34 59.1499 131.925 57.379 130.474 55.608C129.023 53.8371 127.466 52.0661 127.466 52.0661L127.679 48.5242V44.9823L126.476 43.7426C125.733 43.0342 124.777 42.0071 123.786 41.0508L119.682 37.2964H118.549L116.072 37.5089L112.534 37.8631L111.72 37.1546C111.189 36.7296 110.446 36.0921 109.491 35.3837C107.615 33.9669 105.174 31.8418 102.413 30.2479L98.5918 27.6623L95.0532 25.5372L92.6116 24.0496L91.6916 23.5183L90.7362 19.9764L89.71 16.4345L88.1884 15.6199L84.6498 13.9197L81.1113 12.2905L79.5189 11.6175L76.1572 12.9988L72.9017 14.4156L69.3632 13.0342L65.5769 11.6883L61.1891 10.3424C58.2167 9.38608 55.1735 8.7131 52.9088 8.11097C51.7765 7.82762 50.8211 7.65053 50.1488 7.50885L49.1226 7.29635L47.1763 4.2857C46.1855 2.76267 45.1594 1.2751 45.1594 1.2751L39.6745 0.460425C38.3299 0.24791 36.9499 0.0708512 35.8883 1.29491e-05L34.1898 -0.177094L31.4297 2.12513C30.0497 3.29396 28.7404 4.53366 28.7404 4.53366L24.1756 4.32115C23.0432 4.32115 21.9109 4.32115 21.0263 4.32115H19.6109C19.6109 4.32115 17.3108 4.32115 15.0461 4.32115L10.4813 4.56906C10.4813 4.56906 9.17212 3.32941 7.79208 2.16058L5.032 -0.177094L3.29802 0.0354126C2.27184 0.0354126 0.891876 0.24791 -0.488159 0.460425L-6.00843 1.3105L-6.64535 2.23138L-8.02534 4.32115L-10.0069 7.33174L-10.7147 7.79221L-13.5102 8.42973C-15.7749 9.03185 -18.8534 9.74029 -21.8258 10.6966C-23.312 11.1571 -24.8336 11.5821 -26.2136 12.0779L-29.9999 13.4238C-32.1938 14.2031 -33.5385 14.8052 -33.5385 14.8052L-36.8294 13.3884L-40.3679 12.0071C-40.3679 12.0071 -41.0049 12.255 -41.9249 12.7155L-45.4635 14.3448C-46.702 14.9469 -47.9405 15.549 -49.002 16.0449L-50.5236 16.8241C-50.5236 16.8241 -51.0544 18.5596 -51.5498 20.366C-52.0452 22.1724 -52.4698 23.9079 -52.4698 23.9079C-52.4698 23.9079 -57.8838 27.0248 -63.0855 30.5667C-65.5979 32.4085 -68.1457 34.1086 -69.9857 35.7025L-73.0289 38.1818C-73.0289 38.1818 -74.7981 37.9339 -76.5674 37.7922L-80.106 37.5443L-81.4154 38.7131C-82.1585 39.3861 -83.22 40.3424 -84.1754 41.2987L-88.1386 45.1948V48.7367L-87.9263 52.2786C-87.9263 52.2786 -89.4833 53.9433 -90.9341 55.8205L-93.8711 59.3625L-96.6312 62.9044C-98.0112 64.7107 -99.3205 66.4463 -99.3205 66.4463L-102.859 67.0484L-106.398 67.7568L-109.335 72.503C-110.078 73.6718 -110.75 74.876 -111.245 75.7969L-112.095 77.32L-111.033 80.8619C-110.538 82.562 -109.901 84.4038 -109.901 84.4038C-109.901 84.4038 -112.767 90.0354 -115.067 95.8796C-116.199 98.7839 -117.261 101.724 -118.039 103.955L-119.207 107.71L-122.392 109.339L-125.506 111.11L-126.851 116.458C-127.417 119.185 -127.948 121.877 -127.948 121.877C-127.948 121.877 -126.957 123.365 -125.895 124.817L-123.737 127.721C-123.737 127.721 -123.984 129.244 -124.303 131.582C-124.621 133.92 -124.904 137.037 -125.152 140.153C-125.577 146.423 -125.435 152.727 -125.435 152.727C-125.435 152.727 -126.744 153.967 -127.948 155.278L-130.389 157.969C-130.389 157.969 -130.389 158.642 -130.389 159.705C-130.389 160.767 -130.389 162.113 -130.106 163.495C-129.788 166.293 -129.505 169.056 -129.505 169.056L-126.567 171.216L-123.666 173.306C-123.666 173.306 -123.312 175.573 -122.852 177.804L-121.932 182.267H-121.224L-121.932 182.444L-120.8 186.871C-120.269 189.067 -119.596 191.263 -119.596 191.263L-121.295 194.38L-122.994 197.603C-122.994 197.603 -122.038 200.224 -121.118 202.845C-120.658 204.156 -120.127 205.431 -119.703 206.387L-119.066 207.981L-115.527 209.327C-113.864 209.965 -112.166 210.531 -112.166 210.531L-110.467 214.073C-109.476 216.198 -107.955 218.961 -106.468 221.688C-103.39 227.143 -99.8159 232.314 -99.8159 232.314C-99.8159 232.314 -100.205 234.085 -100.488 235.856L-101.09 239.398L-100.064 240.779C-99.4266 241.629 -98.5773 242.727 -97.6927 243.79L-95.2865 246.765C-94.6496 247.58 -94.1895 248.076 -94.1895 248.076L-90.651 248.288H-87.1124C-87.1124 248.288 -86.0509 249.457 -84.3877 251.122L-81.5922 253.991C-80.5307 255.018 -79.3629 256.045 -78.0537 257.108C-75.7536 259.268 -73.312 261.251 -71.5073 262.775C-70.6227 263.518 -69.8442 264.12 -69.278 264.545L-68.4288 265.183C-68.4288 265.183 -68.2164 266.954 -67.9687 268.725C-67.9687 269.61 -67.721 270.496 -67.6148 271.204L-67.438 272.302L-62.8379 275.455C-61.7055 276.234 -60.5024 276.942 -59.6178 277.509L-58.1315 278.43L-54.5929 277.509L-51.0544 276.517L-47.0558 278.713L-42.951 280.732L-41.6772 281.334C-40.8987 281.724 -39.8725 282.22 -38.8109 282.645L-34.6 284.416C-34.6 284.416 -33.963 286.116 -33.2199 287.745L-31.7338 291.039L-30.1061 291.606C-29.1507 291.995 -27.8414 292.456 -26.5675 292.845L-21.295 294.475L-18.181 292.633L-15.1379 290.756L-14.0764 291.039L-11.3163 291.677C-9.05161 292.102 -6.00842 292.81 -2.89447 293.235L1.63489 293.908C3.08571 294.12 4.46576 294.227 5.6335 294.333L9.52594 294.723L11.8614 297.414L14.2676 300.106H25.4141L27.8204 297.414L30.1558 294.687H31.2527L34.0836 294.439L38.0822 294.014L42.6469 293.306C45.7608 292.881 48.8041 292.172 51.1396 291.712C52.2719 291.499 53.2273 291.216 53.8996 291.074L54.9258 290.791L58.0044 292.668L60.1629 293.943L61.1537 294.475L66.4615 292.845L70.0001 291.606L71.6278 291.004L73.1141 287.71L74.4587 284.38L78.6696 282.609L82.7744 280.697C82.7744 280.697 84.8621 279.74 86.8437 278.642L90.8423 276.482L94.3809 277.474L97.9195 278.359L99.4056 277.474C100.29 276.942 101.423 276.163 102.59 275.384L105.74 273.294L107.155 272.267C107.155 272.267 107.438 270.461 107.686 268.725C107.934 266.989 108.146 265.183 108.146 265.183C108.441 264.975 108.725 264.75 108.995 264.51L111.224 262.739C112.109 261.995 113.206 261.145 114.303 260.189L117.842 257.143C120.177 255.053 122.371 252.786 124.034 251.157L126.723 248.288H133.871L137.41 244.038C139.073 241.806 140.772 239.61 140.772 239.61C140.772 239.61 140.524 237.804 140.205 236.069L139.498 232.527L141.727 229.268C142.93 227.249 144.664 224.628 146.186 221.865C147.707 219.103 149.193 216.34 150.184 214.215L151.883 210.673L155.244 209.433L158.606 208.087C158.606 208.087 159.703 205.537 160.623 202.916C161.083 201.606 161.578 200.295 161.932 199.374C162.286 198.453 162.463 197.71 162.463 197.71L160.8 194.522L159.066 191.37L159.491 190.024L160.269 187.013C160.8 184.817 161.366 182.586 161.366 182.586L162.286 178.158C162.498 177.06 162.711 175.927 162.852 175.112L163.1 173.695L166.002 171.606L168.903 169.445C168.903 169.445 168.903 168.772 169.115 167.745L169.505 163.955C169.788 161.192 169.894 158.394 169.894 158.394C169.894 158.394 168.797 156.34 167.559 155.03ZM153.05 160.874C152.803 163.672 152.555 166.222 152.201 168.489C151.847 170.756 151.564 172.704 151.246 174.298C150.573 177.485 150.22 179.327 150.22 179.327H149.795L150.679 179.54H150.22L148.946 184.498C148.592 186.092 147.955 188.04 147.318 190.165C146.681 192.29 145.761 194.77 144.806 197.426C134.975 223.353 117.296 245.557 94.2393 260.933L90.7008 263.164L87.5868 265.006C85.6406 266.21 83.8713 267.131 82.4558 267.91C79.5542 269.469 77.8557 270.248 77.8557 270.248L76.6526 270.815C75.8388 271.169 74.7064 271.771 73.1141 272.409C71.5217 273.046 69.7878 273.825 67.6646 274.64C65.5415 275.455 63.0999 276.375 60.4106 277.19C54.3076 279.134 48.0763 280.649 41.7623 281.724C34.5135 282.946 27.1741 283.55 19.8232 283.53C12.4854 283.517 5.16051 282.913 -2.08057 281.724C-3.81446 281.476 -5.61911 281.086 -7.14069 280.767C-8.66228 280.449 -10.3962 280.095 -11.9532 279.669L-16.4826 278.536L-20.6581 277.226C-24.9756 275.876 -29.2164 274.292 -33.3615 272.479C-34.8831 271.842 -36.0508 271.311 -36.9001 270.921L-38.1032 270.354L-37.2185 268.477L-36.0154 269.044C-35.237 269.433 -34.0692 269.965 -32.4769 270.602C-28.3819 272.369 -24.2012 273.929 -19.9503 275.277L-15.8456 276.517L-11.387 277.686C-9.86543 278.076 -8.3084 278.43 -6.68066 278.749C-5.05292 279.067 -3.38988 279.422 -1.69138 279.669C5.44261 280.859 12.6617 281.463 19.8939 281.476C27.1275 281.495 34.3493 280.891 41.4792 279.669C47.7129 278.631 53.8627 277.14 59.8798 275.207C62.4984 274.392 64.8692 273.471 66.957 272.727L72.3356 270.496C73.8218 269.894 74.9541 269.292 75.8741 268.938L77.0772 268.371C77.0772 268.371 78.7403 267.627 81.5712 266.069C82.9866 265.325 84.7206 264.404 86.6314 263.235L89.71 261.393L93.0362 259.233C115.725 244.079 133.119 222.211 142.789 196.682C143.744 194.097 144.629 191.688 145.265 189.599C145.902 187.509 146.504 185.561 146.893 184.002C147.672 180.885 148.132 179.115 148.132 179.115C148.132 179.115 148.486 177.308 149.123 174.156C149.476 172.597 149.724 170.614 150.078 168.418C150.432 166.222 150.679 163.707 150.927 160.944C153.278 133.76 147.093 106.519 133.234 83.0225C132.527 81.8536 131.854 80.6848 131.182 79.4806C130.51 78.2763 129.837 77.4616 129.236 76.5053C127.997 74.6281 126.83 72.9634 125.874 71.7592C123.999 69.1381 122.831 67.7214 122.831 67.7214L122.017 66.6942C121.451 66.0213 120.708 65.0295 119.611 63.8253C118.514 62.6211 117.275 61.1334 115.718 59.5042C114.161 57.8749 112.428 55.9622 110.375 54.1558C100.525 44.8156 89.2785 37.0718 77.0418 31.2043C70.5346 28.0688 63.7758 25.4859 56.8366 23.4829C55.1735 22.9516 53.5457 22.5974 51.9534 22.1724C50.361 21.7473 48.7687 21.3577 47.2117 21.0744L42.7178 20.1889L38.4361 19.5159C32.9867 18.7367 28.3865 18.4534 25.1311 18.3117C23.5387 18.3117 22.2648 18.3117 21.3802 18.3117H20.0709H18.7262C17.877 18.3117 16.6031 18.3117 14.9754 18.3117C13.3476 18.3117 11.4368 18.3117 9.17206 18.6659C6.90738 19.0201 4.39497 19.0909 1.63489 19.5159C-11.7721 21.4471 -24.8039 25.4249 -37.0062 31.3105C-49.1985 37.1847 -60.4073 44.9152 -70.2335 54.2267C-74.232 58.052 -77.3106 61.3105 -79.4691 63.8961L-82.7246 67.7922L-82.123 68.2527L-82.9369 67.6151H-82.7246L-85.8032 71.6529C-87.714 74.2739 -90.3325 78.0638 -93.1633 82.8454C-96.4046 88.3098 -99.243 94.0038 -101.656 99.882C-107.129 113.262 -110.357 127.456 -111.21 141.889C-111.609 148.202 -111.538 154.536 -110.998 160.838C-110.502 166.364 -109.795 170.933 -109.193 174.12C-108.591 177.308 -108.167 179.079 -108.167 179.079L-106.893 184.002C-105.743 188.32 -104.373 192.576 -102.788 196.753C-100.508 202.617 -97.8361 208.321 -94.7911 213.825C-91.247 220.119 -87.2123 226.124 -82.7246 231.783C-74.2689 242.385 -64.2313 251.62 -52.9652 259.162C-50.7005 260.756 -48.4712 261.995 -46.5604 263.199C-44.6496 264.404 -43.0218 265.254 -41.4649 266.033C-39.9079 266.812 -38.8817 267.344 -38.1386 267.733L-36.9355 268.3L-36.4047 267.202L-38.3863 271.346L-37.8201 270.177L-39.0232 269.575C-39.8371 269.185 -41.0048 268.654 -42.5618 267.84C-44.1188 267.025 -45.7819 266.139 -47.7635 264.97C-49.7451 263.802 -51.939 262.491 -54.2745 260.862C-65.7199 253.209 -75.9137 243.83 -84.4939 233.058C-89.0403 227.316 -93.1338 221.229 -96.7373 214.852C-99.8337 209.248 -102.541 203.438 -104.841 197.462C-106.822 192.22 -108.202 187.721 -109.052 184.569C-109.512 182.763 -109.83 181.452 -110.042 180.602C-110.14 180.534 -110.219 180.444 -110.275 180.34C-110.33 180.235 -110.36 180.118 -110.361 180C-110.361 180 -110.361 179.717 -110.361 179.575C-110.38 179.387 -110.38 179.197 -110.361 179.008C-110.361 179.008 -110.361 179.008 -110.361 178.831C-110.361 178.052 -110.821 176.6 -111.245 174.51C-111.847 171.252 -112.59 166.612 -113.085 161.015C-113.62 154.618 -113.703 148.191 -113.333 141.783C-112.852 134.465 -111.811 127.194 -110.219 120.035C-108.574 112.893 -106.362 105.893 -103.602 99.1027C-101.191 93.1552 -98.3531 87.3904 -95.1096 81.8536C-92.208 77.0366 -89.5541 73.1405 -87.6079 70.5195L-84.4939 66.4109L-84.9185 66.0567L-84.4585 66.4109C-84.4585 66.4109 -83.2908 64.9587 -81.1676 62.4439C-79.0445 59.9291 -75.8598 56.4935 -71.7904 52.5974C-61.7916 43.1762 -50.4211 35.3299 -38.0679 29.327C-25.6683 23.338 -12.4197 19.2999 1.21028 17.3554C4.00575 16.9303 6.58893 16.7533 8.85361 16.5053C11.1183 16.2574 13.1353 16.222 14.7631 16.1511C16.3908 16.0803 17.7 16.1511 18.5847 16.1511H19.9294H25.0956C29.6193 16.3161 34.1313 16.718 38.613 17.3554L42.9301 18.0283L47.4948 18.9492C49.0872 19.2326 50.6795 19.6222 52.3073 20.0473C53.935 20.4723 55.5981 20.8619 57.2612 21.3931C71.407 25.4865 84.7759 31.9019 96.8225 40.3778C102.062 44.0779 107.028 48.1498 111.684 52.562C113.737 54.4392 115.471 56.3518 117.098 57.9811C118.726 59.6104 119.965 61.1334 121.026 62.3731C122.088 63.6128 122.902 64.6045 123.468 65.2774L124.317 66.34C124.317 66.34 125.52 67.7568 127.431 70.4132C128.422 71.7237 129.59 73.353 130.97 75.2657L132.987 78.2763C133.659 79.3743 134.331 80.5431 135.074 81.8182C142.05 93.6874 147.181 106.55 150.29 119.965C153.299 133.379 154.23 147.176 153.05 160.874ZM-103.567 173.022C-104.168 169.976 -104.841 165.62 -105.336 160.307C-106.42 147.386 -105.501 134.375 -102.611 121.736C-99.7453 109.102 -94.9724 96.9793 -88.4571 85.7851C-85.7324 81.2161 -83.22 77.5679 -81.3799 75.1594L-78.443 71.2633L-79.7522 70.2362L-78.5491 71.1924L-75.4352 67.4735C-73.4182 65.1358 -70.4457 61.8772 -66.6241 58.2291C-62.177 54.0805 -57.4475 50.246 -52.4698 46.7533C-46.8567 42.7569 -40.9412 39.2043 -34.7769 36.1275C-23.1054 30.4786 -10.6325 26.6675 2.20108 24.8288C4.81963 24.4392 7.26123 24.2621 9.27821 24.0142C11.2952 23.7662 13.3123 23.7663 14.8692 23.6954C16.4262 23.6246 17.5939 23.6954 18.4078 23.6954H18.8677C19.1365 23.748 19.4129 23.748 19.6816 23.6954H21.1324C21.9463 23.6954 23.1848 23.6954 24.671 23.6954C28.9359 23.8452 33.1889 24.2354 37.4099 24.8643L41.4792 25.4664L45.7963 26.3164C47.2825 26.5998 48.7687 26.9894 50.3257 27.379C51.8826 27.7686 53.4396 28.1228 54.9966 28.6187C74.1716 34.1749 91.7401 44.2426 106.235 57.9811C108.181 59.7875 109.774 61.523 111.331 63.0815C112.888 64.6399 114.02 66.0567 115.046 67.2255C116.072 68.3943 116.815 69.3506 117.346 69.9882L118.16 70.9799H117.948L118.655 70.4132L118.16 70.8383C118.16 70.8383 119.292 72.1842 121.097 74.6635C122.017 75.9032 123.114 77.4262 124.282 79.2326L126.157 82.0661L128.139 85.3247C141.396 107.746 147.357 133.741 145.195 159.705C144.947 162.361 144.699 164.77 144.345 166.789C143.992 168.808 143.779 170.756 143.461 172.243L142.505 176.989C142.505 176.989 142.081 178.69 141.302 181.7C140.948 183.188 140.382 184.959 139.745 187.013C139.108 189.067 138.33 191.37 137.41 193.849C128.151 218.271 111.498 239.187 89.7807 253.672L86.6314 255.762L83.6944 257.497C81.8543 258.63 80.1558 259.516 78.8465 260.224C76.1218 261.712 74.5295 262.42 74.5295 262.42L73.3618 262.952C72.6187 263.306 71.5217 263.873 70.1062 264.475L64.9754 266.564C62.9584 267.308 60.6936 268.194 58.1459 268.973C52.3636 270.834 46.4491 272.254 40.453 273.223C33.6258 274.384 26.7128 274.965 19.7878 274.959C12.8751 274.952 5.97488 274.371 -0.842041 273.223C-2.50517 273.011 -4.06216 272.621 -5.61913 272.338C-7.1761 272.054 -8.69769 271.7 -10.1485 271.311L-14.4301 270.213L-18.358 269.008C-22.4248 267.745 -26.4178 266.255 -30.3184 264.545C-31.7338 263.943 -32.8661 263.448 -33.6092 263.058L-34.7416 262.527L-35.2016 263.518L-34.317 261.712L-34.7062 262.527L-35.8386 261.96C-36.5817 261.606 -37.714 261.11 -39.0587 260.331C-40.4033 259.551 -42.0665 258.737 -43.9419 257.639C-45.8174 256.541 -47.8697 255.301 -50.0636 253.778C-60.7841 246.557 -70.3318 237.729 -78.3721 227.603C-82.6707 222.196 -86.5284 216.451 -89.9079 210.425C-92.8281 205.153 -95.3819 199.685 -97.5512 194.061C-99.4267 189.103 -100.701 184.888 -101.514 181.877C-102.328 178.867 -102.718 177.804 -102.718 177.804L-103.567 173.022Z" fill="white"/>
<path d="M53.9704 122.479L53.475 122.869C54.0714 123.38 54.8306 123.661 55.6158 123.661C56.401 123.661 57.1603 123.38 57.7567 122.869C58.4486 122.373 58.9385 121.643 59.1366 120.815C59.2381 120.432 59.2493 120.032 59.1695 119.645C59.0896 119.257 58.9209 118.894 58.6766 118.583C58.3953 118.283 58.0555 118.044 57.6782 117.88C57.3008 117.717 56.894 117.632 56.4827 117.632C56.0715 117.632 55.6646 117.717 55.2873 117.88C54.9099 118.044 54.5701 118.283 54.2888 118.583C53.6749 119.066 53.255 119.754 53.1056 120.522C52.9562 121.289 53.0873 122.084 53.475 122.763L53.9704 122.479Z" fill="white"/>
<path d="M64.3383 162.609C64.7256 162.753 65.1382 162.816 65.5507 162.795C65.9633 162.775 66.3672 162.67 66.7381 162.488C67.1088 162.305 67.4388 162.049 67.7076 161.735C67.9764 161.421 68.1784 161.056 68.3015 160.661C68.3715 160.247 68.3553 159.824 68.2539 159.416C68.1525 159.009 67.968 158.627 67.7122 158.294C67.4564 157.962 67.1347 157.686 66.7672 157.484C66.3997 157.281 65.9945 157.157 65.5768 157.119C64.8124 156.916 63.9993 157.012 63.3027 157.387C62.6061 157.762 62.0781 158.388 61.826 159.138C61.4367 160.555 62.6398 162.113 64.3383 162.609Z" fill="white"/>
</svg>
